<svg width="752" height="857" viewBox="0 0 752 857" fill="none" xmlns="http://www.w3.org/2000/svg">
<path d="M317.039 49.0622C330.736 33.0762 360.42 10.8305 378.914 0C374.656 11.8333 371.973 25.2382 369.991 37.6682C369.738 39.2512 368.915 47.8252 368.598 48.4952C367.729 69.0072 366.38 81.7742 369.674 102.495C438.784 98.8902 508.082 102.523 576.437 113.333C583.664 114.484 591.264 115.915 598.415 116.781C626.905 120.232 652.272 138.235 670.255 159.872C671.65 161.551 674.084 164.477 675.05 166.254C685.604 179.435 693.23 194.712 697.421 211.068C700.336 222.298 700.77 233.917 702.088 245.425L708.945 300.784L724.737 428.756C726.425 443.645 728.766 460.228 729.959 474.994C735.215 524.072 741.702 573.295 746.599 622.443C748.76 644.122 753.376 670.101 750.721 691.426C747.967 713.546 736.396 738.868 722.394 756.307C712.623 768.524 700.505 778.662 686.755 786.122C675.986 791.897 657.205 797.696 644.886 801.875C590.168 820.44 533.979 834.345 476.918 843.442C461.595 846.031 446.207 848.225 430.77 850.02C345.54 859.557 259.486 859.071 174.369 848.57C142.177 844.562 113.976 842.956 87.574 821.061C68.954 805.619 54.14 787.385 44.797 764.765C39.631 752.035 37.1 733.085 34.38 719.06C24.543 668.996 16.873 618.531 11.39 567.805C8.85897 542.915 5.12296 509.682 4.03596 484.795C-0.227037 429.336 -0.373039 371.857 0.302961 316.294C1.15296 297.437 -0.605037 277.35 2.20396 258.689C5.66796 235.683 17.94 215.678 32.386 198.017C44.773 182.536 63.509 167.972 83.02 162.186C111.752 153.667 140.629 143.335 169.701 135.821C198.227 128.819 227.275 122.248 256.411 118.384C262.617 117.561 268.943 117.267 275.046 115.861C283.39 94.6142 299.896 64.6932 317.039 49.0622Z" fill="#166281"/>
<path d="M317.039 49.0622C330.736 33.0762 360.42 10.8305 378.914 0C374.656 11.8333 371.973 25.2382 369.991 37.6682C369.738 39.2512 368.915 47.8252 368.598 48.4952C367.729 69.0072 366.38 81.7742 369.674 102.495C438.784 98.8902 508.082 102.523 576.437 113.333C583.664 114.484 591.264 115.915 598.415 116.781C626.905 120.232 652.272 138.235 670.255 159.872C671.65 161.551 674.084 164.477 675.05 166.254C685.604 179.435 693.23 194.712 697.421 211.068C700.336 222.298 700.77 233.917 702.088 245.425L708.945 300.784L724.737 428.756C726.425 443.645 728.766 460.228 729.959 474.994C707.109 487.9 683.721 500.308 659.847 511.147C657.314 512.297 646.762 516.297 645.844 517.861L645.629 517.537C641.014 518.736 623.851 524.955 619.332 526.864C616.016 515.721 613.073 501.573 610.477 490.19L598.319 436.904C596.557 428.969 594.712 421.052 592.784 413.155C561.493 411.678 532.84 410.962 501.902 417.533C486.84 420.732 473.781 425.209 459.305 428.806C453.042 432.444 442.212 436.308 435.163 439.392C413.194 449.004 396.148 459.099 376.711 473.108C369.806 478.8 364.009 483.117 358.442 490.202C346.038 480.718 336.047 474.989 322.763 466.958C313.539 462.233 303.751 457.655 294.292 453.466C286.519 450.023 279.006 447.622 271.558 443.417C266.947 442.951 260.146 440.539 255.545 439.303C247.377 437.109 239.302 434.569 230.999 432.84C196.237 424.314 158.666 425.693 123.334 430.665C123.344 435.556 123.57 443.6 123.133 448.219C86.784 458.921 97.25 495.249 93.125 524.239C87.378 521.698 76.411 518.488 69.807 515.908C51.551 508.908 33.806 500.644 16.7 491.176C13.964 489.681 6.55196 485.322 4.03596 484.795C-0.227037 429.336 -0.373039 371.857 0.302961 316.294C1.15296 297.437 -0.605037 277.35 2.20396 258.689C5.66796 235.683 17.94 215.678 32.386 198.017C44.773 182.536 63.509 167.972 83.02 162.186C111.752 153.667 140.629 143.335 169.701 135.821C198.227 128.819 227.275 122.248 256.411 118.384C262.617 117.561 268.943 117.267 275.046 115.861C283.39 94.6142 299.896 64.6932 317.039 49.0622Z" fill="url(#paint0_linear_1_25)"/>
<path d="M369.674 102.495C438.784 98.8902 508.082 102.523 576.437 113.333C583.664 114.484 591.264 115.915 598.415 116.781C626.905 120.232 652.272 138.235 670.255 159.872C671.65 161.551 674.084 164.477 675.05 166.254C685.604 179.435 693.23 194.712 697.421 211.068C700.336 222.298 700.77 233.917 702.088 245.425L708.945 300.784L724.737 428.756C726.425 443.645 728.766 460.228 729.959 474.994C707.109 487.9 683.721 500.308 659.847 511.147C657.314 512.297 646.762 516.297 645.844 517.861L645.629 517.537C641.014 518.736 623.851 524.955 619.332 526.864C616.016 515.721 613.073 501.573 610.477 490.19L598.319 436.904C596.557 428.969 594.712 421.052 592.784 413.155C561.493 411.678 532.84 410.962 501.902 417.533C486.84 420.732 473.781 425.209 459.305 428.806C468.183 420.399 478.718 411.773 486.057 402.079C549.611 318.136 513.189 219.623 449.335 149.684C447.689 147.606 445.972 146.027 444.083 144.183C445.746 148.326 447.176 152.56 448.366 156.863C456.898 187.71 439.922 204.792 412.232 186.909C386.245 170.126 375.195 131.033 369.674 102.495Z" fill="url(#paint1_linear_1_25)"/>
<path d="M598.319 436.904C613.361 438.775 628.176 440.467 633.545 458.445C636.386 467.957 637.525 478.053 639.762 487.728C641.324 496.78 644.504 508.826 645.629 517.537C641.014 518.736 623.851 524.955 619.332 526.864C616.016 515.721 613.073 501.573 610.477 490.19L598.319 436.904Z" fill="#CCEAF6"/>
<path d="M169.701 135.821C198.227 128.819 227.275 122.248 256.411 118.384C262.617 117.561 268.943 117.267 275.046 115.861C271.114 125.34 269.127 134.506 265.722 143.532C258.88 176.05 256.521 199.212 262.481 232.539C263.614 238.869 268.713 258.27 268.304 262.511L267.51 262.94C264.747 260.379 261.308 254.536 259.308 251.146C247.385 231.159 240.754 208.464 240.04 185.202C239.611 174.001 240.126 165.64 241.131 154.554C231.599 163.626 226.713 170.772 219.531 181.469C198.659 212.558 185.142 249.384 184.19 287.063C183.428 332.576 200.384 376.605 231.477 409.851C241.904 420.847 253.135 430.828 265.702 439.238C267.527 440.46 269.933 442.008 271.558 443.417C266.947 442.951 260.146 440.539 255.545 439.303C247.377 437.109 239.302 434.569 230.999 432.84C196.237 424.314 158.666 425.693 123.334 430.665C123.344 435.556 123.57 443.6 123.133 448.219C86.784 458.921 97.25 495.249 93.125 524.239C87.378 521.698 76.411 518.488 69.807 515.908C51.551 508.908 33.806 500.644 16.7 491.176C13.964 489.681 6.55196 485.322 4.03596 484.795C-0.227037 429.336 -0.373039 371.857 0.302961 316.294C1.15296 297.437 -0.605037 277.35 2.20396 258.689C5.66796 235.683 17.94 215.678 32.386 198.017C44.773 182.536 63.509 167.972 83.02 162.186C111.752 153.667 140.629 143.335 169.701 135.821Z" fill="url(#paint2_linear_1_25)"/>
<path d="M350.245 264.968C375.023 314.288 416.521 370.511 396.981 427.942C391.077 445.294 382.049 457.357 376.711 473.108C369.806 478.8 364.009 483.117 358.442 490.202C346.038 480.718 336.047 474.989 322.763 466.958C318.558 425.478 341.852 402.983 349.804 364.61C355.397 337.62 355.928 309.108 352.378 281.865C351.652 276.294 350.752 270.536 350.245 264.968Z" fill="#FEFEFE"/>
<path d="M317.039 49.0622C330.736 33.0762 360.42 10.8305 378.914 0C374.656 11.8333 371.973 25.2382 369.991 37.6682C369.738 39.2512 368.915 47.8252 368.598 48.4952C368.373 49.2572 368.182 50.3792 368.016 51.1872L367.526 51.4502C366.706 50.2392 367.002 50.2002 366.986 48.4482C366.492 49.0312 366.376 49.6692 366.127 50.3862C365.539 49.4142 365.604 49.5462 364.84 48.7012C364.058 48.7282 364.08 48.6492 363.461 48.8962C358.665 50.8052 358.923 46.8672 351.995 46.6182C345.799 46.3952 344.087 47.4162 338.494 48.0562C334.988 48.4572 325.954 48.1782 322.414 47.7992L321.739 46.6362L320.326 46.6782C319.077 48.0742 318.736 48.2192 317.039 49.0622Z" fill="#F06900"/>
<path d="M93.125 524.239C97.25 495.249 86.784 458.921 123.133 448.219L116.292 584.13C113.811 640.924 110.968 697.702 107.763 754.46C120.276 749.219 131.43 744.074 144.237 739.179C201.759 717.193 262.418 706.711 320.931 731.501C334.33 737.178 347.14 743.162 359.754 750.682C366.487 754.697 372.713 760.017 379.422 763.904C380.925 764.775 384.037 765.533 385.603 764.584C392.448 760.437 398.994 754.137 405.589 749.5C415.665 742.415 425.847 735.849 436.573 729.787C453.276 720.348 472.532 711.644 491.028 706.524C495.757 705.215 506.479 704.373 511.666 704.009C557.206 700.807 603.832 710.756 647.039 724.462C653.144 726.399 659.24 728.635 665.328 730.461C663.075 715.192 657.897 696.894 654.371 681.563L631.417 580.844C627.78 564.921 621.864 542.519 619.332 526.864C623.851 524.955 641.014 518.736 645.629 517.537L645.844 517.861C646.762 516.297 657.314 512.297 659.847 511.147C683.721 500.308 707.109 487.9 729.959 474.994C735.215 524.072 741.702 573.295 746.599 622.443C748.76 644.122 753.376 670.101 750.721 691.426C747.967 713.546 736.396 738.868 722.394 756.307C712.623 768.524 700.505 778.662 686.755 786.122C675.986 791.897 657.205 797.696 644.886 801.875C590.168 820.44 533.979 834.345 476.918 843.442C461.595 846.031 446.207 848.225 430.77 850.02C345.54 859.557 259.486 859.071 174.369 848.57C142.177 844.562 113.976 842.956 87.574 821.061C68.954 805.619 54.14 787.385 44.797 764.765C39.631 752.035 37.1 733.085 34.38 719.06C24.543 668.996 16.873 618.531 11.39 567.805C8.85901 542.915 5.12301 509.682 4.03601 484.795C6.55201 485.322 13.964 489.681 16.7 491.176C33.806 500.644 51.551 508.908 69.807 515.908C76.411 518.488 87.378 521.698 93.125 524.239Z" fill="#166281"/>
<path d="M93.125 524.239C97.25 495.249 86.784 458.921 123.133 448.219L116.292 584.13C113.811 640.924 110.968 697.702 107.763 754.46C120.276 749.219 131.43 744.074 144.237 739.179C201.759 717.193 262.418 706.711 320.931 731.501C334.33 737.178 347.14 743.162 359.754 750.682C366.487 754.697 372.713 760.017 379.422 763.904C380.925 764.775 384.037 765.533 385.603 764.584C392.448 760.437 398.994 754.137 405.589 749.5C415.665 742.415 425.847 735.849 436.573 729.787C453.276 720.348 472.532 711.644 491.028 706.524C495.757 705.215 506.479 704.373 511.666 704.009C557.206 700.807 603.832 710.756 647.039 724.462C653.144 726.399 659.24 728.635 665.328 730.461C663.075 715.192 657.897 696.894 654.371 681.563L631.417 580.844C627.78 564.921 621.864 542.519 619.332 526.864C623.851 524.955 641.014 518.736 645.629 517.537L645.844 517.861C656.283 564.84 665.716 612.629 675.7 659.81L687.128 713.934C689.102 723.34 691.264 733.005 692.91 742.456C693.394 745.239 693.819 749.317 692.229 751.617C690.232 754.506 688.025 756.623 684.462 757.378C682.787 757.748 681.043 757.654 679.417 757.106C673.71 755.235 668.094 751.176 662.734 748.387C656.195 744.984 648.886 742.175 641.898 739.823C571.96 716.277 479.231 723.399 416.42 763.688C417.224 769.77 417.194 777.473 412.98 782.394C400.522 796.941 367.437 798.644 352.468 787.29C345.398 781.927 345.219 775.168 346.202 767.1C337.41 762.09 325.951 757.915 316.16 754.868C250.881 734.556 175.597 740.512 114.373 770.935C106.945 774.626 100.05 779.478 92.751 783.154C86.86 780.599 83.158 779.386 79.07 774.271C78.775 765.282 79.892 754.307 80.537 745.181C81.483 731.887 82.309 718.586 83.015 705.277L91.214 558.259C91.77 546.944 92.713 535.525 93.125 524.239Z" fill="#8CD0EC"/>
<path d="M543.875 421.898C556.114 421.186 572.434 421.57 584.62 422.184C607.503 519.877 629.828 617.7 651.591 715.649L650.401 715.19C602.261 696.723 544.374 687.408 492.93 695.134C484.386 696.417 465.377 704.141 456.903 707.911C439.552 715.673 423.605 725.702 407.789 736.2C401.625 740.291 395.83 744.955 389.591 749.065C387.555 721.588 384.102 692.77 381.24 665.283L373.647 587.565L367.679 525.414C366.783 516.148 366.155 505.913 364.85 496.795C365.775 495.655 366.724 494.535 367.697 493.436C372.026 488.584 378.298 483.572 383.594 479.56C415.036 455.737 454.735 439.167 492.654 429.203C509.281 424.835 526.872 422.906 543.875 421.898Z" fill="#FEFEFE"/>
<path d="M591.202 618.891C592.857 618.711 592.123 618.555 593.51 619.182C594.679 621.884 595.652 627.026 596.422 630.147C583.56 632.068 570.539 632.917 557.462 635.389C515.833 643.258 476.868 655.348 439.946 676.452C430.931 681.604 421.648 688.08 413.255 694.037L411.868 694.891L411.068 694.369C410.046 691.488 409.761 686.096 409.391 682.791C471.861 640.627 516.227 626.535 591.202 618.891Z" fill="#CCEAF6"/>
<path d="M560.844 454.43C564.114 454.152 567.975 454.06 571.299 453.898L572.619 466.277C511.467 468.152 451.085 482.914 401.523 520.595L395.051 525.23C395.097 520.789 394.827 516.17 394.637 511.717C400.742 505.515 416.763 495.537 424.762 491.158C469.963 466.417 510.135 457.394 560.844 454.43Z" fill="#CCEAF6"/>
<path d="M577.174 555.389C577.837 555.368 579.599 555.135 579.89 555.562C581.682 558.198 582.31 564.575 582.916 567.642C523.802 568.452 455.804 592.039 409.723 629.209C408.671 630.142 408.161 630.782 406.794 631.109L405.911 630.398C404.926 627.922 405.071 621.865 404.943 618.864C410.751 614.048 418.552 609.027 424.781 604.774C469.933 573.941 522.794 558.718 577.174 555.389Z" fill="#CCEAF6"/>
<path d="M569.424 499.383L572.334 499.176C575.062 501.184 575.712 508.182 576.455 511.838C562.698 512.785 551.75 513.33 537.854 515.313C501.506 520.591 466.468 532.63 434.552 550.809C423.334 557.209 414.633 562.13 404.58 570.402L400.714 574.188C400.122 569.737 399.771 564.945 399.389 560.451C450.321 520.048 505.95 505.382 569.424 499.383Z" fill="#CCEAF6"/>
<path d="M167.247 436.399C224.191 434.769 281.707 453.834 330.166 482.724C339.607 488.353 346.92 494.062 355.948 499.849C356.285 506.575 357.71 516.114 358.379 523.166L364.797 589.079C369.762 642.967 374.007 699.36 380.426 752.983C364.617 741.341 347.592 731.447 329.649 723.476L329.18 723.276C253.986 691.413 190.88 709.277 118.477 738.689C118.532 723.687 120.005 707.003 120.733 691.95L124.459 610.314L132.52 438.893C145.084 437.518 154.594 436.807 167.247 436.399Z" fill="#FEFEFE"/>
<path d="M150.532 630.611C214.277 630.868 279.3 644.931 335.96 674.548C336.267 679.876 336.743 684.389 337.364 689.664C318.592 679.548 296.198 669.086 275.762 662.772C237.654 650.997 189.627 642.692 150.012 643.858C150.269 639.446 150.442 635.03 150.532 630.611Z" fill="#CCEAF6"/>
<path d="M153.048 570.24C222.937 572.736 265.798 584.008 328.43 613.601C328.76 618.874 329.036 624.037 329.68 629.287C318.233 623.989 307.64 617.058 295.807 611.878C259.477 595.973 220.78 587.818 181.445 583.828C171.74 582.843 162.219 582.825 152.53 582.231C152.487 578.398 152.826 574.107 153.048 570.24Z" fill="#CCEAF6"/>
<path d="M155.027 519.111C216.844 519.298 268.006 534.257 322.393 562.378C322.809 567.245 323.187 572.114 323.527 576.987C314.385 572.617 305.705 566.767 295.958 562.374C251.498 542.525 203.528 531.736 154.851 530.637C155.038 526.979 154.987 522.81 155.027 519.111Z" fill="#CCEAF6"/>
<path d="M158.003 470.469C206.664 471.229 248.505 479.323 293.216 499.075C301.551 502.757 309.001 506.009 317.026 510.424L318.606 525.152C307.848 518.281 296.109 513.017 284.312 508.191C242.31 491.009 202.58 482.31 157.334 482.361L158.003 470.469Z" fill="#CCEAF6"/>
<defs>
<linearGradient id="paint0_linear_1_25" x1="349.533" y1="45.9795" x2="352.462" y2="469.367" gradientUnits="userSpaceOnUse">
<stop stop-color="#F26303"/>
<stop offset="1" stop-color="#FFBF08"/>
</linearGradient>
<linearGradient id="paint1_linear_1_25" x1="581.58" y1="513.324" x2="595.243" y2="139.656" gradientUnits="userSpaceOnUse">
<stop stop-color="#3990AD"/>
<stop offset="1" stop-color="#79B6C4"/>
</linearGradient>
<linearGradient id="paint2_linear_1_25" x1="152.675" y1="517.518" x2="120.559" y2="140.221" gradientUnits="userSpaceOnUse">
<stop stop-color="#3B90AD"/>
<stop offset="1" stop-color="#7EB9C5"/>
</linearGradient>
</defs>
</svg>
